<?xml version="1.0" encoding="UTF-8"?>
<!DOCTYPE svg PUBLIC "-//W3C//DTD SVG 1.1//EN" "http://www.w3.org/Graphics/SVG/1.1/DTD/svg11.dtd">
<!-- Creator: CorelDRAW X7 -->
<svg xmlns="http://www.w3.org/2000/svg" xml:space="preserve" width="123.472mm" height="47.2722mm" version="1.1" style="shape-rendering:geometricPrecision; text-rendering:geometricPrecision; image-rendering:optimizeQuality; fill-rule:evenodd; clip-rule:evenodd"
viewBox="0 0 12347 4727"
 xmlns:xlink="http://www.w3.org/1999/xlink">
 <defs>
  <style type="text/css">
   <![CDATA[
    .fil0 {fill:#373435;fill-rule:nonzero}
    .fil1 {fill:#F89F32;fill-rule:nonzero}
   ]]>
  </style>
 </defs>
 <g id="Ebene_x0020_1">
  <metadata id="CorelCorpID_0Corel-Layer"/>
  <polygon class="fil0" points="0,4727 989,4727 989,-20 0,-20 "/>
  <polygon class="fil0" points="4345,4727 5334,4727 5334,-20 4345,-20 "/>
  <polygon class="fil0" points="3009,191 4988,191 4988,-20 3009,-20 "/>
  <polygon class="fil0" points="2994,4727 3198,4727 3198,-20 2994,-20 "/>
  <polygon class="fil0" points="920,2453 3050,2453 3050,2243 920,2243 "/>
  <polygon class="fil0" points="6351,191 7805,191 7805,-20 6351,-20 "/>
  <polygon class="fil0" points="6338,4727 6543,4727 6543,-20 6338,-20 "/>
  <polygon class="fil0" points="9102,-20 10155,-20 7372,4727 6334,4727 "/>
  <polygon class="fil1" points="11298,-20 12351,-20 12351,-19 9568,4727 8530,4727 "/>
 </g>
</svg>
